<?xml version="1.0" standalone="no"?><!DOCTYPE svg PUBLIC "-//W3C//DTD SVG 1.1//EN" "http://www.w3.org/Graphics/SVG/1.1/DTD/svg11.dtd"><svg t="1576945470074" class="icon" viewBox="0 0 1024 1024" version="1.1" xmlns="http://www.w3.org/2000/svg" p-id="2157" xmlns:xlink="http://www.w3.org/1999/xlink" width="48" height="48"><defs><style type="text/css"></style></defs><path d="M685.056 541.12 421.44 383.04C415.232 379.392 407.488 379.2 401.28 382.784 394.944 386.304 391.104 392.96 391.104 400.192l0 316.352c0 7.232 3.904 13.888 10.176 17.408 3.072 1.728 6.464 2.624 9.856 2.624 3.584 0 7.168-0.96 10.304-2.88l263.616-158.208c6.08-3.584 9.728-10.112 9.728-17.152C694.784 551.296 691.072 544.768 685.056 541.12z" p-id="2158" fill="#1296db"></path><path d="M927.488 115.072 96.576 115.072C43.328 115.072 0 159.488 0 214.016l0 595.968c0 54.528 43.328 98.944 96.576 98.944l830.912 0c53.248 0 96.512-44.416 96.512-98.944L1024 214.016C1024 159.488 980.672 115.072 927.488 115.072zM927.488 817.472 96.576 817.472c-4.032 0-7.296-3.328-7.296-7.488L89.28 290.88l845.44 0 0 519.104C934.72 814.144 931.456 817.472 927.488 817.472z" p-id="2159" fill="#1296db"></path></svg>